<?xml version="1.0" encoding="UTF-8" standalone="no"?>
<!-- Created with Inkscape (http://www.inkscape.org/) -->

<svg
   xmlns:dc="http://purl.org/dc/elements/1.1/"
   xmlns:cc="http://creativecommons.org/ns#"
   xmlns:rdf="http://www.w3.org/1999/02/22-rdf-syntax-ns#"
   xmlns:svg="http://www.w3.org/2000/svg"
   xmlns="http://www.w3.org/2000/svg"
   xmlns:xlink="http://www.w3.org/1999/xlink"
   xmlns:sodipodi="http://sodipodi.sourceforge.net/DTD/sodipodi-0.dtd"
   xmlns:inkscape="http://www.inkscape.org/namespaces/inkscape"
   width="64px"
   height="64px"
   id="svg2985"
   version="1.1"
   inkscape:version="0.48.2 r9819"
   sodipodi:docname="dote.svg"
   inkscape:export-filename="/Users/kitsonk/github/dote/dote_256.png"
   inkscape:export-xdpi="360"
   inkscape:export-ydpi="360">
  <defs
     id="defs2987">
    <linearGradient
       id="linearGradient3766">
      <stop
         style="stop-color:#e4ebf2;stop-opacity:1;"
         offset="0"
         id="stop3768" />
      <stop
         style="stop-color:#ffffff;stop-opacity:1;"
         offset="1"
         id="stop3770" />
    </linearGradient>
    <linearGradient
       inkscape:collect="always"
       xlink:href="#linearGradient3766"
       id="linearGradient3772"
       x1="32.117863"
       y1="62.863636"
       x2="32.450233"
       y2="4.0454526"
       gradientUnits="userSpaceOnUse"
       gradientTransform="matrix(0.9830766,0,0,0.98349597,0.00886765,0.06901683)" />
    <filter
       inkscape:collect="always"
       id="filter3833">
      <feGaussianBlur
         inkscape:collect="always"
         stdDeviation="0.89347903"
         id="feGaussianBlur3835" />
    </filter>
    <linearGradient
       inkscape:collect="always"
       xlink:href="#linearGradient3766"
       id="linearGradient3841"
       gradientUnits="userSpaceOnUse"
       gradientTransform="matrix(0.9830766,0,0,0.98349597,0.00886765,0.06901683)"
       x1="32.117863"
       y1="62.863636"
       x2="32.450233"
       y2="4.0454526" />
  </defs>
  <sodipodi:namedview
     id="base"
     pagecolor="#ffffff"
     bordercolor="#666666"
     borderopacity="1.0"
     inkscape:pageopacity="0.0"
     inkscape:pageshadow="2"
     inkscape:zoom="11"
     inkscape:cx="26.818182"
     inkscape:cy="28.363636"
     inkscape:current-layer="layer1"
     showgrid="true"
     inkscape:document-units="px"
     inkscape:grid-bbox="true"
     inkscape:window-width="1920"
     inkscape:window-height="1032"
     inkscape:window-x="1280"
     inkscape:window-y="0"
     inkscape:window-maximized="1" />
  <metadata
     id="metadata2990">
    <rdf:RDF>
      <cc:Work
         rdf:about="">
        <dc:format>image/svg+xml</dc:format>
        <dc:type
           rdf:resource="http://purl.org/dc/dcmitype/StillImage" />
        <dc:title></dc:title>
      </cc:Work>
    </rdf:RDF>
  </metadata>
  <g
     id="layer1"
     inkscape:label="Layer 1"
     inkscape:groupmode="layer">
    <g
       id="g3837"
       transform="matrix(0.99168199,0,0,1,0.00435853,0)">
      <path
         style="opacity:0.5;fill:#000000;fill-opacity:1;stroke:#000000;stroke-width:0.97745448;stroke-opacity:1;filter:url(#filter3833)"
         d="m 11.82315,5.3636362 41.584858,0 c 5.60501,0 10.117344,4.3365225 10.117344,9.7231448 l 0,27.761517 c 0,5.386622 -4.512334,9.723145 -10.117344,9.723145 0,0 -2.553395,0 -4.44829,0 -0.947445,0 1.405159,4.34034 -6.551513,10.103185 1.344518,-7.090828 -1.10007,-10.103185 -2.047517,-10.103185 -10.071833,0 -28.537538,0 -28.537538,0 -5.605008,0 -10.117344,-4.336523 -10.117344,-9.723145 l 0,-27.761517 c 0,-5.3866223 4.512336,-9.7231448 10.117344,-9.7231448 z"
         id="path3821"
         inkscape:connector-curvature="0"
         sodipodi:nodetypes="sssssscsssss" />
      <path
         sodipodi:nodetypes="sssssscsssss"
         inkscape:connector-curvature="0"
         id="rect2993"
         d="m 10.641332,4.181818 41.584858,0 c 5.60501,0 10.117344,4.3365226 10.117344,9.723145 l 0,27.761517 c 0,5.386622 -4.512334,9.723145 -10.117344,9.723145 0,0 -2.553395,0 -4.44829,0 -0.947445,0 1.405159,4.34034 -6.551513,10.103185 1.344518,-7.090828 -1.10007,-10.103185 -2.047517,-10.103185 -10.071833,0 -28.537538,0 -28.537538,0 -5.6050083,0 -10.11734421,-4.336523 -10.11734421,-9.723145 l 0,-27.761517 c 0,-5.3866224 4.51233591,-9.723145 10.11734421,-9.723145 z"
         style="fill:url(#linearGradient3841);fill-opacity:1;stroke:#b5bcc7;stroke-width:0.97745448;stroke-opacity:1" />
    </g>
    <text
       xml:space="preserve"
       style="font-size:54.74459839px;font-style:normal;font-weight:normal;line-height:125%;letter-spacing:0px;word-spacing:0px;fill:#677589;fill-opacity:1;stroke:none;font-family:Bitstream Vera Sans"
       x="14.583711"
       y="46.554489"
       id="text3843"
       sodipodi:linespacing="125%"><tspan
         sodipodi:role="line"
         id="tspan3845"
         x="14.583711"
         y="46.554489"
         style="font-style:normal;font-variant:normal;font-weight:bold;font-stretch:normal;fill:#677589;fill-opacity:1;font-family:Arial;-inkscape-font-specification:Arial Bold">d</tspan></text>
  </g>
</svg>
